<?xml version="1.0" standalone="no"?>
<svg xmlns:xlink="http://www.w3.org/1999/xlink" id="wave" style="transform:rotate(180deg); transition: 0.3s" viewBox="0 0 1440 290" version="1.1" xmlns="http://www.w3.org/2000/svg"><defs><linearGradient id="sw-gradient-0" x1="0" x2="0" y1="1" y2="0"><stop stop-color="rgba(249, 245, 242, 1)" offset="0%"/><stop stop-color="rgba(249, 245, 242, 1)" offset="100%"/></linearGradient></defs><path style="transform:translate(0, 0px); opacity:1" fill="url(#sw-gradient-0)" d="M0,203L40,188.5C80,174,160,145,240,145C320,145,400,174,480,154.7C560,135,640,68,720,38.7C800,10,880,19,960,53.2C1040,87,1120,145,1200,174C1280,203,1360,203,1440,169.2C1520,135,1600,68,1680,62.8C1760,58,1840,116,1920,125.7C2000,135,2080,97,2160,77.3C2240,58,2320,58,2400,77.3C2480,97,2560,135,2640,130.5C2720,126,2800,77,2880,67.7C2960,58,3040,87,3120,120.8C3200,155,3280,193,3360,203C3440,213,3520,193,3600,174C3680,155,3760,135,3840,140.2C3920,145,4000,174,4080,183.7C4160,193,4240,184,4320,164.3C4400,145,4480,116,4560,116C4640,116,4720,145,4800,164.3C4880,184,4960,193,5040,178.8C5120,164,5200,126,5280,96.7C5360,68,5440,48,5520,48.3C5600,48,5680,68,5720,77.3L5760,87L5760,290L5720,290C5680,290,5600,290,5520,290C5440,290,5360,290,5280,290C5200,290,5120,290,5040,290C4960,290,4880,290,4800,290C4720,290,4640,290,4560,290C4480,290,4400,290,4320,290C4240,290,4160,290,4080,290C4000,290,3920,290,3840,290C3760,290,3680,290,3600,290C3520,290,3440,290,3360,290C3280,290,3200,290,3120,290C3040,290,2960,290,2880,290C2800,290,2720,290,2640,290C2560,290,2480,290,2400,290C2320,290,2240,290,2160,290C2080,290,2000,290,1920,290C1840,290,1760,290,1680,290C1600,290,1520,290,1440,290C1360,290,1280,290,1200,290C1120,290,1040,290,960,290C880,290,800,290,720,290C640,290,560,290,480,290C400,290,320,290,240,290C160,290,80,290,40,290L0,290Z"/><defs><linearGradient id="sw-gradient-1" x1="0" x2="0" y1="1" y2="0"><stop stop-color="rgba(249, 245, 242, 1)" offset="0%"/><stop stop-color="rgba(255, 255, 255, 1)" offset="100%"/></linearGradient></defs><path style="transform:translate(0, 50px); opacity:0.9" fill="url(#sw-gradient-1)" d="M0,116L40,135.3C80,155,160,193,240,188.5C320,184,400,135,480,101.5C560,68,640,48,720,67.7C800,87,880,145,960,178.8C1040,213,1120,222,1200,198.2C1280,174,1360,116,1440,96.7C1520,77,1600,97,1680,96.7C1760,97,1840,77,1920,58C2000,39,2080,19,2160,43.5C2240,68,2320,135,2400,154.7C2480,174,2560,145,2640,130.5C2720,116,2800,116,2880,125.7C2960,135,3040,155,3120,140.2C3200,126,3280,77,3360,91.8C3440,106,3520,184,3600,222.3C3680,261,3760,261,3840,241.7C3920,222,4000,184,4080,174C4160,164,4240,184,4320,164.3C4400,145,4480,87,4560,67.7C4640,48,4720,68,4800,96.7C4880,126,4960,164,5040,164.3C5120,164,5200,126,5280,111.2C5360,97,5440,106,5520,111.2C5600,116,5680,116,5720,116L5760,116L5760,290L5720,290C5680,290,5600,290,5520,290C5440,290,5360,290,5280,290C5200,290,5120,290,5040,290C4960,290,4880,290,4800,290C4720,290,4640,290,4560,290C4480,290,4400,290,4320,290C4240,290,4160,290,4080,290C4000,290,3920,290,3840,290C3760,290,3680,290,3600,290C3520,290,3440,290,3360,290C3280,290,3200,290,3120,290C3040,290,2960,290,2880,290C2800,290,2720,290,2640,290C2560,290,2480,290,2400,290C2320,290,2240,290,2160,290C2080,290,2000,290,1920,290C1840,290,1760,290,1680,290C1600,290,1520,290,1440,290C1360,290,1280,290,1200,290C1120,290,1040,290,960,290C880,290,800,290,720,290C640,290,560,290,480,290C400,290,320,290,240,290C160,290,80,290,40,290L0,290Z"/></svg>